<svg width="120" height="120" viewBox="0 0 120 120" fill="none" xmlns="http://www.w3.org/2000/svg">
<mask id="mask0_1_58" style="mask-type:alpha" maskUnits="userSpaceOnUse" x="9" y="72" width="40" height="40">
<path d="M12.4447 108.511C8.97178 105.038 8.97178 99.4072 12.4447 95.9341L35.8951 72.4836L48.472 85.0605L25.0215 108.511C21.5484 111.984 15.9175 111.984 12.4447 108.511V108.511Z" fill="url(#paint0_linear_1_58)"/>
</mask>
<g mask="url(#mask0_1_58)">
<path d="M12.4447 108.511C8.97178 105.038 8.97178 99.4072 12.4447 95.9341L35.8951 72.4836L48.472 85.0605L25.0215 108.511C21.5484 111.984 15.9175 111.984 12.4447 108.511V108.511Z" fill="url(#paint1_linear_1_58)"/>
<path d="M29.1912 79.1873L29.1912 104.341L45.9923 87.5399L33.4157 74.963L29.1912 79.1873Z" fill="url(#paint2_linear_1_58)"/>
</g>
<path d="M57.8269 18.2021C64.7228 12.456 74.8626 12.9161 81.2097 19.2633L100.384 38.3674C106.755 44.7387 107.191 54.926 101.388 61.8185L72.8629 96.4168C66.3121 104.197 54.5057 104.702 47.314 97.5106L22.5033 72.6999C15.2866 65.4832 15.8246 53.6274 23.6654 47.0939L57.8269 18.2021Z" fill="url(#paint3_linear_1_58)"/>
<path fill-rule="evenodd" clip-rule="evenodd" d="M73.9842 25.034C67.4153 18.4652 57.0933 17.8169 50.1811 23.5392L15.9467 52.3199C13.7385 54.1479 12.1242 56.4134 11.11 58.8921L44.4887 30.6624C51.3847 24.9162 61.5244 25.3763 67.8716 31.7235L88.5182 52.3002C94.5518 58.3339 95.2627 67.7897 90.3924 74.6287L95.2646 68.6782C101.045 61.7705 100.421 51.4006 93.8267 44.8067L73.9842 25.034ZM82.4103 84.3774L65.8064 104.517C66.173 104.152 66.5263 103.768 66.8649 103.363L82.4103 84.3774Z" fill="url(#paint4_linear_1_58)"/>
<path d="M51.72 23.28C57.4398 18.4109 65.397 18.7436 70.5937 22.2652C72.316 23.4323 72.1774 25.8406 70.6921 27.2974L23.4 73.68L22.32 72.6C15.1546 65.4346 15.5731 53.7508 23.2892 47.1822L51.72 23.28Z" fill="url(#paint5_linear_1_58)"/>
<path d="M47.3302 97.5819C54.4721 104.724 66.2179 104.217 72.7835 96.483L75.8468 92.8747L41.607 66.813L29.0842 79.3358L47.3302 97.5819Z" fill="url(#paint6_linear_1_58)"/>
<path d="M48.4253 59.8808C55.2032 53.1029 66.1923 53.1029 72.9702 59.8808V59.8808C73.1085 60.0191 73.1085 60.2432 72.9702 60.3815L41.5716 91.7801L29.0488 79.2573L48.4253 59.8808Z" fill="url(#paint7_linear_1_58)"/>
<path fill-rule="evenodd" clip-rule="evenodd" d="M29.0489 79.2165L41.5746 66.6907L55.7883 77.5227L41.5717 91.7393L29.0489 79.2165Z" fill="#0085FF"/>
<path fill-rule="evenodd" clip-rule="evenodd" d="M81.2097 19.2633C74.8626 12.9162 64.7229 12.456 57.8269 18.2022L53.9478 21.4828C60.4638 18.3014 68.4865 19.4764 73.8266 24.8165L94.4732 45.3933C100.845 51.7646 101.284 61.949 95.4839 68.8377L71.784 97.587C72.1573 97.2172 72.5174 96.8271 72.8629 96.4168L101.388 61.8185C107.191 54.926 106.755 44.7387 100.384 38.3674L81.2097 19.2633Z" fill="url(#paint8_radial_1_58)"/>
<path fill-rule="evenodd" clip-rule="evenodd" d="M81.2853 19.1955C74.9381 12.8483 64.7833 12.4033 57.8676 18.1692L23.6077 47.1593C23.0866 47.5938 22.5975 48.0517 22.1407 48.5301L52.2685 23.1115C58.3745 18.0369 67.4095 18.5114 73.1038 24.2056L90.3049 41.3449C96.0208 47.0608 96.4742 56.138 91.3486 62.2406L66.1601 92.8777C60.3745 99.7661 49.8611 100.141 43.4092 93.6892L21.2278 71.5078C21.5938 71.9553 21.9858 72.389 22.4039 72.8071L47.2146 97.6178C54.4063 104.809 66.2319 104.285 72.805 96.4824L101.428 61.7856C107.252 54.8733 106.831 44.6708 100.459 38.2995L81.2853 19.1955Z" fill="url(#paint9_linear_1_58)"/>
<defs>
<linearGradient id="paint0_linear_1_58" x1="21.453" y1="87.8393" x2="35.5655" y2="101.952" gradientUnits="userSpaceOnUse">
<stop stop-color="#FFD9C8"/>
<stop offset="1" stop-color="#E6886D"/>
</linearGradient>
<linearGradient id="paint1_linear_1_58" x1="21.453" y1="87.8393" x2="35.5655" y2="101.952" gradientUnits="userSpaceOnUse">
<stop stop-color="#FFC5AA"/>
<stop offset="1" stop-color="#E6886D"/>
</linearGradient>
<linearGradient id="paint2_linear_1_58" x1="30.4692" y1="102.852" x2="37.5773" y2="77.4156" gradientUnits="userSpaceOnUse">
<stop stop-color="#E99077" stop-opacity="0"/>
<stop offset="1" stop-color="#A93C33"/>
</linearGradient>
<linearGradient id="paint3_linear_1_58" x1="75.84" y1="28.08" x2="34.32" y2="75.6" gradientUnits="userSpaceOnUse">
<stop stop-color="#FF97AD"/>
<stop offset="1" stop-color="#FB025A"/>
</linearGradient>
<linearGradient id="paint4_linear_1_58" x1="77.76" y1="28.8" x2="73.08" y2="36.84" gradientUnits="userSpaceOnUse">
<stop stop-color="white" stop-opacity="0.28"/>
<stop offset="0.536458" stop-color="#FD5B87" stop-opacity="0"/>
</linearGradient>
<linearGradient id="paint5_linear_1_58" x1="68.64" y1="19.6801" x2="37.68" y2="79.4401" gradientUnits="userSpaceOnUse">
<stop stop-color="#0047FF"/>
<stop offset="1" stop-color="#65DDFF"/>
</linearGradient>
<linearGradient id="paint6_linear_1_58" x1="63.8414" y1="96.3284" x2="37.3951" y2="71.0247" gradientUnits="userSpaceOnUse">
<stop stop-color="#004ADB"/>
<stop offset="1" stop-color="#0089FF"/>
</linearGradient>
<linearGradient id="paint7_linear_1_58" x1="65.9355" y1="57.5803" x2="42.0222" y2="84.2918" gradientUnits="userSpaceOnUse">
<stop stop-color="#2087FF"/>
<stop offset="1" stop-color="#00C7FF"/>
</linearGradient>
<radialGradient id="paint8_radial_1_58" cx="0" cy="0" r="1" gradientUnits="userSpaceOnUse" gradientTransform="translate(72.84 18.12) rotate(56.4122) scale(37.3092 33.4519)">
<stop stop-color="#FFE8EC"/>
<stop offset="1" stop-color="#FB025A" stop-opacity="0"/>
</radialGradient>
<linearGradient id="paint9_linear_1_58" x1="44.3999" y1="99.84" x2="151.07" y2="78.0412" gradientUnits="userSpaceOnUse">
<stop stop-color="#FB1965" stop-opacity="0.15"/>
<stop offset="1" stop-color="#FB1965" stop-opacity="0.48"/>
</linearGradient>
</defs>
</svg>
